<svg width="1158" height="690" viewBox="0 0 1158 690" xmlns="http://www.w3.org/2000/svg" role="img" aria-label="Featured projects">
  
  <g transform="translate(8,8)">
    <rect width="560" height="210" rx="20" fill="#F2F6FC" stroke="#DCE6F5" stroke-width="1.3"/>
    <rect width="560" height="210" rx="20" fill="none" stroke="#0EA5E9" stroke-width="1.2" opacity="0">
      <animate attributeName="opacity" values="0;0.35;0" dur="5s" begin="0.0s" repeatCount="indefinite"/>
    </rect>
    <g transform="translate(38,42)">
      <circle r="20" fill="#F6F9FD" stroke="#0EA5E9" stroke-width="1.2" opacity="0.9"/>
      <circle cx="-10" cy="-9" r="3" fill="#0EA5E9"/><circle cx="10" cy="-9" r="3" fill="#0EA5E9"/><circle cx="-10" cy="0" r="3" fill="#0EA5E9"/><path d="M-10,-6 L0,4 L10,-6 M-10,3 L0,4" fill="none" stroke="#0EA5E9" stroke-width="1.6"/><path d="M-13,8 L13,8 L7,16 L-7,16 Z" fill="#2563EB"/>
    </g>
    <text x="70" y="34" font-family="'Segoe UI', ui-sans-serif, system-ui, -apple-system, 'Helvetica Neue', Arial, sans-serif" font-size="19" font-weight="700" fill="#111827">Universal Ingestion Framework</text>
    <g transform="translate(0,0)">
      <rect x="436.0" y="20" width="100.0" height="24" rx="12" fill="#22C55E" opacity="0.14"/>
      <circle cx="452.0" cy="32" r="3.4" fill="#22C55E"/>
      <text x="462.0" y="36" font-family="'Segoe UI', ui-sans-serif, system-ui, -apple-system, 'Helvetica Neue', Arial, sans-serif" font-size="11.5" font-weight="600" fill="#22C55E">Production</text>
    </g>
    <text x="26" y="82" font-family="'Segoe UI', ui-sans-serif, system-ui, -apple-system, 'Helvetica Neue', Arial, sans-serif" font-size="13.5" fill="#64748B"><tspan x="0" dy="0">Config-driven multi-source ingestion framework</tspan><tspan x="0" dy="19">for Snowflake, unifying batch and streaming</tspan><tspan x="0" dy="19">pipelines behind one contract.</tspan></text>
    <g transform="translate(26,172)"><g transform="translate(0,0)"><rect width="85" height="24" rx="12" fill="#F2F6FC" stroke="#DCE6F5" stroke-width="1"/><text x="42.5" y="16" text-anchor="middle" font-family="'SFMono-Regular', 'Cascadia Code', Consolas, 'Courier New', monospace" font-size="11.5" fill="#64748B">Snowflake</text></g><g transform="translate(93,0)"><rect width="64" height="24" rx="12" fill="#F2F6FC" stroke="#DCE6F5" stroke-width="1"/><text x="32.0" y="16" text-anchor="middle" font-family="'SFMono-Regular', 'Cascadia Code', Consolas, 'Courier New', monospace" font-size="11.5" fill="#64748B">Python</text></g><g transform="translate(165,0)"><rect width="71" height="24" rx="12" fill="#F2F6FC" stroke="#DCE6F5" stroke-width="1"/><text x="35.5" y="16" text-anchor="middle" font-family="'SFMono-Regular', 'Cascadia Code', Consolas, 'Courier New', monospace" font-size="11.5" fill="#64748B">Airflow</text></g></g>
  </g>
  <g transform="translate(590,8)">
    <rect width="560" height="210" rx="20" fill="#F2F6FC" stroke="#DCE6F5" stroke-width="1.3"/>
    <rect width="560" height="210" rx="20" fill="none" stroke="#0EA5E9" stroke-width="1.2" opacity="0">
      <animate attributeName="opacity" values="0;0.35;0" dur="5s" begin="0.5s" repeatCount="indefinite"/>
    </rect>
    <g transform="translate(38,42)">
      <circle r="20" fill="#F6F9FD" stroke="#0EA5E9" stroke-width="1.2" opacity="0.9"/>
      <path d="M0,-15 L12,-10 V2 C12,10 6,15 0,17 C-6,15 -12,10 -12,2 V-10 Z" fill="none" stroke="#0EA5E9" stroke-width="2"/><path d="M-5,0 L-1,5 L6,-6" fill="none" stroke="#2563EB" stroke-width="2.4" stroke-linecap="round" stroke-linejoin="round"/>
    </g>
    <text x="70" y="34" font-family="'Segoe UI', ui-sans-serif, system-ui, -apple-system, 'Helvetica Neue', Arial, sans-serif" font-size="19" font-weight="700" fill="#111827">Fraud Detection Platform</text>
    <g transform="translate(0,0)">
      <rect x="436.0" y="20" width="100.0" height="24" rx="12" fill="#22C55E" opacity="0.14"/>
      <circle cx="452.0" cy="32" r="3.4" fill="#22C55E"/>
      <text x="462.0" y="36" font-family="'Segoe UI', ui-sans-serif, system-ui, -apple-system, 'Helvetica Neue', Arial, sans-serif" font-size="11.5" font-weight="600" fill="#22C55E">Production</text>
    </g>
    <text x="26" y="82" font-family="'Segoe UI', ui-sans-serif, system-ui, -apple-system, 'Helvetica Neue', Arial, sans-serif" font-size="13.5" fill="#64748B"><tspan x="0" dy="0">Real-time fraud scoring pipeline combining a</tspan><tspan x="0" dy="19">rules engine with ML models over streaming</tspan><tspan x="0" dy="19">transactional data.</tspan></text>
    <g transform="translate(26,172)"><g transform="translate(0,0)"><rect width="64" height="24" rx="12" fill="#F2F6FC" stroke="#DCE6F5" stroke-width="1"/><text x="32.0" y="16" text-anchor="middle" font-family="'SFMono-Regular', 'Cascadia Code', Consolas, 'Courier New', monospace" font-size="11.5" fill="#64748B">Python</text></g><g transform="translate(72,0)"><rect width="57" height="24" rx="12" fill="#F2F6FC" stroke="#DCE6F5" stroke-width="1"/><text x="28.5" y="16" text-anchor="middle" font-family="'SFMono-Regular', 'Cascadia Code', Consolas, 'Courier New', monospace" font-size="11.5" fill="#64748B">Kafka</text></g><g transform="translate(137,0)"><rect width="85" height="24" rx="12" fill="#F2F6FC" stroke="#DCE6F5" stroke-width="1"/><text x="42.5" y="16" text-anchor="middle" font-family="'SFMono-Regular', 'Cascadia Code', Consolas, 'Courier New', monospace" font-size="11.5" fill="#64748B">Snowflake</text></g></g>
  </g>
  <g transform="translate(8,240)">
    <rect width="560" height="210" rx="20" fill="#F2F6FC" stroke="#DCE6F5" stroke-width="1.3"/>
    <rect width="560" height="210" rx="20" fill="none" stroke="#0EA5E9" stroke-width="1.2" opacity="0">
      <animate attributeName="opacity" values="0;0.35;0" dur="5s" begin="1.0s" repeatCount="indefinite"/>
    </rect>
    <g transform="translate(38,42)">
      <circle r="20" fill="#F6F9FD" stroke="#0EA5E9" stroke-width="1.2" opacity="0.9"/>
      <rect x="-10" y="-15" width="20" height="26" rx="2.5" fill="none" stroke="#0EA5E9" stroke-width="2"/><line x1="-6" y1="-8" x2="6" y2="-8" stroke="#0EA5E9" stroke-width="1.6"/><line x1="-6" y1="-3" x2="6" y2="-3" stroke="#0EA5E9" stroke-width="1.6"/><line x1="-6" y1="2" x2="2" y2="2" stroke="#0EA5E9" stroke-width="1.6"/><circle cx="7" cy="8" r="5.5" fill="#2563EB" opacity="0.9"/><circle cx="7" cy="8" r="2" fill="#0F172A"/>
    </g>
    <text x="70" y="34" font-family="'Segoe UI', ui-sans-serif, system-ui, -apple-system, 'Helvetica Neue', Arial, sans-serif" font-size="19" font-weight="700" fill="#111827">Document AI</text>
    <g transform="translate(0,0)">
      <rect x="383.2" y="20" width="152.8" height="24" rx="12" fill="#38BDF8" opacity="0.14"/>
      <circle cx="399.2" cy="32" r="3.4" fill="#38BDF8"/>
      <text x="409.2" y="36" font-family="'Segoe UI', ui-sans-serif, system-ui, -apple-system, 'Helvetica Neue', Arial, sans-serif" font-size="11.5" font-weight="600" fill="#38BDF8">Active Development</text>
    </g>
    <text x="26" y="82" font-family="'Segoe UI', ui-sans-serif, system-ui, -apple-system, 'Helvetica Neue', Arial, sans-serif" font-size="13.5" fill="#64748B"><tspan x="0" dy="0">LLM-powered extraction and reasoning system</tspan><tspan x="0" dy="19">that turns unstructured enterprise documents</tspan><tspan x="0" dy="19">into structured data.</tspan></text>
    <g transform="translate(26,172)"><g transform="translate(0,0)"><rect width="64" height="24" rx="12" fill="#F2F6FC" stroke="#DCE6F5" stroke-width="1"/><text x="32.0" y="16" text-anchor="middle" font-family="'SFMono-Regular', 'Cascadia Code', Consolas, 'Courier New', monospace" font-size="11.5" fill="#64748B">OpenAI</text></g><g transform="translate(72,0)"><rect width="64" height="24" rx="12" fill="#F2F6FC" stroke="#DCE6F5" stroke-width="1"/><text x="32.0" y="16" text-anchor="middle" font-family="'SFMono-Regular', 'Cascadia Code', Consolas, 'Courier New', monospace" font-size="11.5" fill="#64748B">Python</text></g><g transform="translate(144,0)"><rect width="64" height="24" rx="12" fill="#F2F6FC" stroke="#DCE6F5" stroke-width="1"/><text x="32.0" y="16" text-anchor="middle" font-family="'SFMono-Regular', 'Cascadia Code', Consolas, 'Courier New', monospace" font-size="11.5" fill="#64748B">Docker</text></g></g>
  </g>
  <g transform="translate(590,240)">
    <rect width="560" height="210" rx="20" fill="#F2F6FC" stroke="#DCE6F5" stroke-width="1.3"/>
    <rect width="560" height="210" rx="20" fill="none" stroke="#0EA5E9" stroke-width="1.2" opacity="0">
      <animate attributeName="opacity" values="0;0.35;0" dur="5s" begin="1.5s" repeatCount="indefinite"/>
    </rect>
    <g transform="translate(38,42)">
      <circle r="20" fill="#F6F9FD" stroke="#0EA5E9" stroke-width="1.2" opacity="0.9"/>
      <circle cx="-9" cy="-8" r="4" fill="none" stroke="#0EA5E9" stroke-width="2"/><circle cx="9" cy="-8" r="4" fill="none" stroke="#0EA5E9" stroke-width="2"/><circle cx="0" cy="10" r="4" fill="#2563EB"/><line x1="-9" y1="-4" x2="0" y2="7" stroke="#0EA5E9" stroke-width="1.6" stroke-dasharray="2 2"/><line x1="9" y1="-4" x2="0" y2="7" stroke="#0EA5E9" stroke-width="1.6"/><line x1="-5" y1="-8" x2="5" y2="-8" stroke="#0EA5E9" stroke-width="1.6" stroke-dasharray="2 2"/>
    </g>
    <text x="70" y="34" font-family="'Segoe UI', ui-sans-serif, system-ui, -apple-system, 'Helvetica Neue', Arial, sans-serif" font-size="19" font-weight="700" fill="#111827">Shell Company Detection</text>
    <g transform="translate(0,0)">
      <rect x="449.2" y="20" width="86.8" height="24" rx="12" fill="#F59E0B" opacity="0.14"/>
      <circle cx="465.2" cy="32" r="3.4" fill="#F59E0B"/>
      <text x="475.2" y="36" font-family="'Segoe UI', ui-sans-serif, system-ui, -apple-system, 'Helvetica Neue', Arial, sans-serif" font-size="11.5" font-weight="600" fill="#F59E0B">Research</text>
    </g>
    <text x="26" y="82" font-family="'Segoe UI', ui-sans-serif, system-ui, -apple-system, 'Helvetica Neue', Arial, sans-serif" font-size="13.5" fill="#64748B"><tspan x="0" dy="0">Graph-based entity resolution that surfaces</tspan><tspan x="0" dy="19">shell company networks hidden inside financial</tspan><tspan x="0" dy="19">ownership data.</tspan></text>
    <g transform="translate(26,172)"><g transform="translate(0,0)"><rect width="64" height="24" rx="12" fill="#F2F6FC" stroke="#DCE6F5" stroke-width="1"/><text x="32.0" y="16" text-anchor="middle" font-family="'SFMono-Regular', 'Cascadia Code', Consolas, 'Courier New', monospace" font-size="11.5" fill="#64748B">Python</text></g><g transform="translate(72,0)"><rect width="43" height="24" rx="12" fill="#F2F6FC" stroke="#DCE6F5" stroke-width="1"/><text x="21.5" y="16" text-anchor="middle" font-family="'SFMono-Regular', 'Cascadia Code', Consolas, 'Courier New', monospace" font-size="11.5" fill="#64748B">SQL</text></g><g transform="translate(123,0)"><rect width="127" height="24" rx="12" fill="#F2F6FC" stroke="#DCE6F5" stroke-width="1"/><text x="63.5" y="16" text-anchor="middle" font-family="'SFMono-Regular', 'Cascadia Code', Consolas, 'Courier New', monospace" font-size="11.5" fill="#64748B">Graph Analytics</text></g></g>
  </g>
  <g transform="translate(8,472)">
    <rect width="560" height="210" rx="20" fill="#F2F6FC" stroke="#DCE6F5" stroke-width="1.3"/>
    <rect width="560" height="210" rx="20" fill="none" stroke="#0EA5E9" stroke-width="1.2" opacity="0">
      <animate attributeName="opacity" values="0;0.35;0" dur="5s" begin="2.0s" repeatCount="indefinite"/>
    </rect>
    <g transform="translate(38,42)">
      <circle r="20" fill="#F6F9FD" stroke="#0EA5E9" stroke-width="1.2" opacity="0.9"/>
      <path d="M0,-16 L13,-10 V2 C13,10 7,15 0,17 C-7,15 -13,10 -13,2 V-10 Z" fill="none" stroke="#0EA5E9" stroke-width="2"/><circle cx="0" cy="-1" r="4.5" fill="none" stroke="#2563EB" stroke-width="2"/><line x1="0" y1="3.5" x2="0" y2="9" stroke="#2563EB" stroke-width="2"/>
    </g>
    <text x="70" y="34" font-family="'Segoe UI', ui-sans-serif, system-ui, -apple-system, 'Helvetica Neue', Arial, sans-serif" font-size="19" font-weight="700" fill="#111827">Snowflake Governance Platform</text>
    <g transform="translate(0,0)">
      <rect x="436.0" y="20" width="100.0" height="24" rx="12" fill="#22C55E" opacity="0.14"/>
      <circle cx="452.0" cy="32" r="3.4" fill="#22C55E"/>
      <text x="462.0" y="36" font-family="'Segoe UI', ui-sans-serif, system-ui, -apple-system, 'Helvetica Neue', Arial, sans-serif" font-size="11.5" font-weight="600" fill="#22C55E">Production</text>
    </g>
    <text x="26" y="82" font-family="'Segoe UI', ui-sans-serif, system-ui, -apple-system, 'Helvetica Neue', Arial, sans-serif" font-size="13.5" fill="#64748B"><tspan x="0" dy="0">Metadata-driven governance layer for access</tspan><tspan x="0" dy="19">control, lineage and data quality enforcement</tspan><tspan x="0" dy="19">across Snowflake.</tspan></text>
    <g transform="translate(26,172)"><g transform="translate(0,0)"><rect width="85" height="24" rx="12" fill="#F2F6FC" stroke="#DCE6F5" stroke-width="1"/><text x="42.5" y="16" text-anchor="middle" font-family="'SFMono-Regular', 'Cascadia Code', Consolas, 'Courier New', monospace" font-size="11.5" fill="#64748B">Snowflake</text></g><g transform="translate(93,0)"><rect width="43" height="24" rx="12" fill="#F2F6FC" stroke="#DCE6F5" stroke-width="1"/><text x="21.5" y="16" text-anchor="middle" font-family="'SFMono-Regular', 'Cascadia Code', Consolas, 'Courier New', monospace" font-size="11.5" fill="#64748B">dbt</text></g><g transform="translate(144,0)"><rect width="85" height="24" rx="12" fill="#F2F6FC" stroke="#DCE6F5" stroke-width="1"/><text x="42.5" y="16" text-anchor="middle" font-family="'SFMono-Regular', 'Cascadia Code', Consolas, 'Courier New', monospace" font-size="11.5" fill="#64748B">Terraform</text></g></g>
  </g>
  <g transform="translate(590,472)">
    <rect width="560" height="210" rx="20" fill="#F2F6FC" stroke="#DCE6F5" stroke-width="1.3"/>
    <rect width="560" height="210" rx="20" fill="none" stroke="#0EA5E9" stroke-width="1.2" opacity="0">
      <animate attributeName="opacity" values="0;0.35;0" dur="5s" begin="2.5s" repeatCount="indefinite"/>
    </rect>
    <g transform="translate(38,42)">
      <circle r="20" fill="#F6F9FD" stroke="#0EA5E9" stroke-width="1.2" opacity="0.9"/>
      <circle cx="-9" cy="10" r="3.6" fill="#2563EB" stroke="#0EA5E9" stroke-width="1.4"/><circle cx="9" cy="10" r="3.6" fill="#2563EB" stroke="#0EA5E9" stroke-width="1.4"/><circle cx="0" cy="-12" r="3.6" fill="#2563EB" stroke="#0EA5E9" stroke-width="1.4"/><path d="M-9,7 C-9,-2 -4,-6 0,-8" fill="none" stroke="#0EA5E9" stroke-width="1.8"/><path d="M9,7 C9,-2 4,-6 0,-8" fill="none" stroke="#0EA5E9" stroke-width="1.8"/>
    </g>
    <text x="70" y="34" font-family="'Segoe UI', ui-sans-serif, system-ui, -apple-system, 'Helvetica Neue', Arial, sans-serif" font-size="19" font-weight="700" fill="#111827">dbt Open Source Contributions</text>
    <g transform="translate(0,0)">
      <rect x="429.4" y="20" width="106.6" height="24" rx="12" fill="#2563EB" opacity="0.14"/>
      <circle cx="445.4" cy="32" r="3.4" fill="#2563EB"/>
      <text x="455.4" y="36" font-family="'Segoe UI', ui-sans-serif, system-ui, -apple-system, 'Helvetica Neue', Arial, sans-serif" font-size="11.5" font-weight="600" fill="#2563EB">Open Source</text>
    </g>
    <text x="26" y="82" font-family="'Segoe UI', ui-sans-serif, system-ui, -apple-system, 'Helvetica Neue', Arial, sans-serif" font-size="13.5" fill="#64748B"><tspan x="0" dy="0">Upstream contributions to dbt-core and</tspan><tspan x="0" dy="19">community packages improving testing, macros</tspan><tspan x="0" dy="19">and documentation.</tspan></text>
    <g transform="translate(26,172)"><g transform="translate(0,0)"><rect width="43" height="24" rx="12" fill="#F2F6FC" stroke="#DCE6F5" stroke-width="1"/><text x="21.5" y="16" text-anchor="middle" font-family="'SFMono-Regular', 'Cascadia Code', Consolas, 'Courier New', monospace" font-size="11.5" fill="#64748B">dbt</text></g><g transform="translate(51,0)"><rect width="36" height="24" rx="12" fill="#F2F6FC" stroke="#DCE6F5" stroke-width="1"/><text x="18.0" y="16" text-anchor="middle" font-family="'SFMono-Regular', 'Cascadia Code', Consolas, 'Courier New', monospace" font-size="11.5" fill="#64748B">Go</text></g><g transform="translate(95,0)"><rect width="43" height="24" rx="12" fill="#F2F6FC" stroke="#DCE6F5" stroke-width="1"/><text x="21.5" y="16" text-anchor="middle" font-family="'SFMono-Regular', 'Cascadia Code', Consolas, 'Courier New', monospace" font-size="11.5" fill="#64748B">Git</text></g></g>
  </g>
</svg>