<svg width="956" height="444" viewBox="0 0 956 444" xmlns="http://www.w3.org/2000/svg" role="img" aria-label="Tech stack">
  
  <g transform="translate(10,10)">
    <rect width="176" height="132" rx="18" fill="#16253F" stroke="#2C4265" stroke-width="1.2"/>
    <rect width="176" height="132" rx="18" fill="none" stroke="#38BDF8" stroke-width="1.2" opacity="0">
      <animate attributeName="opacity" values="0;0.5;0" dur="3.2s" begin="0.0s" repeatCount="indefinite"/>
    </rect>
    <g transform="translate(88.0,46)">
      <circle r="26" fill="none" stroke="#38BDF8" stroke-width="1" opacity="0.25">
        <animate attributeName="r" values="24;28;24" dur="3.2s" begin="0.0s" repeatCount="indefinite"/>
        <animate attributeName="opacity" values="0.15;0.4;0.15" dur="3.2s" begin="0.0s" repeatCount="indefinite"/>
      </circle>
      <g>
        <animateTransform attributeName="transform" type="translate" values="0,0; 0,-3; 0,0"
          dur="3.2s" begin="0.0s" repeatCount="indefinite"/>
        <g transform="rotate(0)"><line x1="0" y1="0" x2="0" y2="-16" stroke="#38BDF8" stroke-width="2.2" stroke-linecap="round"/><line x1="0" y1="-10" x2="-4" y2="-13" stroke="#38BDF8" stroke-width="1.8" stroke-linecap="round"/><line x1="0" y1="-10" x2="4" y2="-13" stroke="#38BDF8" stroke-width="1.8" stroke-linecap="round"/></g><g transform="rotate(60)"><line x1="0" y1="0" x2="0" y2="-16" stroke="#38BDF8" stroke-width="2.2" stroke-linecap="round"/><line x1="0" y1="-10" x2="-4" y2="-13" stroke="#38BDF8" stroke-width="1.8" stroke-linecap="round"/><line x1="0" y1="-10" x2="4" y2="-13" stroke="#38BDF8" stroke-width="1.8" stroke-linecap="round"/></g><g transform="rotate(120)"><line x1="0" y1="0" x2="0" y2="-16" stroke="#38BDF8" stroke-width="2.2" stroke-linecap="round"/><line x1="0" y1="-10" x2="-4" y2="-13" stroke="#38BDF8" stroke-width="1.8" stroke-linecap="round"/><line x1="0" y1="-10" x2="4" y2="-13" stroke="#38BDF8" stroke-width="1.8" stroke-linecap="round"/></g><g transform="rotate(180)"><line x1="0" y1="0" x2="0" y2="-16" stroke="#38BDF8" stroke-width="2.2" stroke-linecap="round"/><line x1="0" y1="-10" x2="-4" y2="-13" stroke="#38BDF8" stroke-width="1.8" stroke-linecap="round"/><line x1="0" y1="-10" x2="4" y2="-13" stroke="#38BDF8" stroke-width="1.8" stroke-linecap="round"/></g><g transform="rotate(240)"><line x1="0" y1="0" x2="0" y2="-16" stroke="#38BDF8" stroke-width="2.2" stroke-linecap="round"/><line x1="0" y1="-10" x2="-4" y2="-13" stroke="#38BDF8" stroke-width="1.8" stroke-linecap="round"/><line x1="0" y1="-10" x2="4" y2="-13" stroke="#38BDF8" stroke-width="1.8" stroke-linecap="round"/></g><g transform="rotate(300)"><line x1="0" y1="0" x2="0" y2="-16" stroke="#38BDF8" stroke-width="2.2" stroke-linecap="round"/><line x1="0" y1="-10" x2="-4" y2="-13" stroke="#38BDF8" stroke-width="1.8" stroke-linecap="round"/><line x1="0" y1="-10" x2="4" y2="-13" stroke="#38BDF8" stroke-width="1.8" stroke-linecap="round"/></g>
      </g>
    </g>
    <text x="88.0" y="112" text-anchor="middle" font-family="'Segoe UI', ui-sans-serif, system-ui, -apple-system, 'Helvetica Neue', Arial, sans-serif" font-size="14.5"
      font-weight="600" fill="#FFFFFF">Snowflake</text>
  </g>
  <g transform="translate(200,10)">
    <rect width="176" height="132" rx="18" fill="#16253F" stroke="#2C4265" stroke-width="1.2"/>
    <rect width="176" height="132" rx="18" fill="none" stroke="#38BDF8" stroke-width="1.2" opacity="0">
      <animate attributeName="opacity" values="0;0.5;0" dur="3.5500000000000003s" begin="0.18s" repeatCount="indefinite"/>
    </rect>
    <g transform="translate(88.0,46)">
      <circle r="26" fill="none" stroke="#38BDF8" stroke-width="1" opacity="0.25">
        <animate attributeName="r" values="24;28;24" dur="3.5500000000000003s" begin="0.18s" repeatCount="indefinite"/>
        <animate attributeName="opacity" values="0.15;0.4;0.15" dur="3.5500000000000003s" begin="0.18s" repeatCount="indefinite"/>
      </circle>
      <g>
        <animateTransform attributeName="transform" type="translate" values="0,0; 0,-3; 0,0"
          dur="3.5500000000000003s" begin="0.18s" repeatCount="indefinite"/>
        <path d="M-16,-6 C-6,-6 -6,0 0,0 C-6,0 -6,6 -16,6 Z" fill="#38BDF8"/><path d="M16,-6 C6,-6 6,0 0,0 C6,0 6,6 16,6 Z" fill="#2563EB"/><circle cx="0" cy="0" r="2.6" fill="#38BDF8"/>
      </g>
    </g>
    <text x="88.0" y="112" text-anchor="middle" font-family="'Segoe UI', ui-sans-serif, system-ui, -apple-system, 'Helvetica Neue', Arial, sans-serif" font-size="14.5"
      font-weight="600" fill="#FFFFFF">dbt</text>
  </g>
  <g transform="translate(390,10)">
    <rect width="176" height="132" rx="18" fill="#16253F" stroke="#2C4265" stroke-width="1.2"/>
    <rect width="176" height="132" rx="18" fill="none" stroke="#38BDF8" stroke-width="1.2" opacity="0">
      <animate attributeName="opacity" values="0;0.5;0" dur="3.9000000000000004s" begin="0.36s" repeatCount="indefinite"/>
    </rect>
    <g transform="translate(88.0,46)">
      <circle r="26" fill="none" stroke="#38BDF8" stroke-width="1" opacity="0.25">
        <animate attributeName="r" values="24;28;24" dur="3.9000000000000004s" begin="0.36s" repeatCount="indefinite"/>
        <animate attributeName="opacity" values="0.15;0.4;0.15" dur="3.9000000000000004s" begin="0.36s" repeatCount="indefinite"/>
      </circle>
      <g>
        <animateTransform attributeName="transform" type="translate" values="0,0; 0,-3; 0,0"
          dur="3.9000000000000004s" begin="0.36s" repeatCount="indefinite"/>
        <ellipse cx="-7" cy="2" rx="9" ry="7" fill="#38BDF8"/><ellipse cx="8" cy="2" rx="9" ry="7" fill="#2563EB"/><circle cx="-10" cy="-1" r="1.6" fill="#0F172A"/><circle cx="5" cy="-1" r="1.6" fill="#0F172A"/><line x1="-16" y1="-8" x2="-13" y2="-5" stroke="#38BDF8" stroke-width="2"/><line x1="1" y1="-8" x2="4" y2="-5" stroke="#2563EB" stroke-width="2"/>
      </g>
    </g>
    <text x="88.0" y="112" text-anchor="middle" font-family="'Segoe UI', ui-sans-serif, system-ui, -apple-system, 'Helvetica Neue', Arial, sans-serif" font-size="14.5"
      font-weight="600" fill="#FFFFFF">Go</text>
  </g>
  <g transform="translate(580,10)">
    <rect width="176" height="132" rx="18" fill="#16253F" stroke="#2C4265" stroke-width="1.2"/>
    <rect width="176" height="132" rx="18" fill="none" stroke="#38BDF8" stroke-width="1.2" opacity="0">
      <animate attributeName="opacity" values="0;0.5;0" dur="4.25s" begin="0.54s" repeatCount="indefinite"/>
    </rect>
    <g transform="translate(88.0,46)">
      <circle r="26" fill="none" stroke="#38BDF8" stroke-width="1" opacity="0.25">
        <animate attributeName="r" values="24;28;24" dur="4.25s" begin="0.54s" repeatCount="indefinite"/>
        <animate attributeName="opacity" values="0.15;0.4;0.15" dur="4.25s" begin="0.54s" repeatCount="indefinite"/>
      </circle>
      <g>
        <animateTransform attributeName="transform" type="translate" values="0,0; 0,-3; 0,0"
          dur="4.25s" begin="0.54s" repeatCount="indefinite"/>
        <path d="M-1,-16 C6,-16 6,-11 6,-8 L6,-3 L-8,-3 L-8,-1 L9,-1 C9,-1 12,-1 12,6 C12,13 9,14 3,14 C-3,14 -3,10 -3,10 L2,10 C2,11.5 3,12 5,12 C7,12 7,10.5 7,9 L7,4 L-6,4 C-6,4 -9,4 -9,-3 C-9,-10 -6,-11 -1,-11 Z" fill="#38BDF8"/><circle cx="2" cy="-9" r="1.5" fill="#0F172A"/><circle cx="-2" cy="9" r="1.5" fill="#0F172A"/>
      </g>
    </g>
    <text x="88.0" y="112" text-anchor="middle" font-family="'Segoe UI', ui-sans-serif, system-ui, -apple-system, 'Helvetica Neue', Arial, sans-serif" font-size="14.5"
      font-weight="600" fill="#FFFFFF">Python</text>
  </g>
  <g transform="translate(770,10)">
    <rect width="176" height="132" rx="18" fill="#16253F" stroke="#2C4265" stroke-width="1.2"/>
    <rect width="176" height="132" rx="18" fill="none" stroke="#38BDF8" stroke-width="1.2" opacity="0">
      <animate attributeName="opacity" values="0;0.5;0" dur="4.6s" begin="0.72s" repeatCount="indefinite"/>
    </rect>
    <g transform="translate(88.0,46)">
      <circle r="26" fill="none" stroke="#38BDF8" stroke-width="1" opacity="0.25">
        <animate attributeName="r" values="24;28;24" dur="4.6s" begin="0.72s" repeatCount="indefinite"/>
        <animate attributeName="opacity" values="0.15;0.4;0.15" dur="4.6s" begin="0.72s" repeatCount="indefinite"/>
      </circle>
      <g>
        <animateTransform attributeName="transform" type="translate" values="0,0; 0,-3; 0,0"
          dur="4.6s" begin="0.72s" repeatCount="indefinite"/>
        <ellipse cx="0" cy="-10" rx="14" ry="5" fill="none" stroke="#38BDF8" stroke-width="2"/><path d="M-14,-10 v14 a14,5 0 0 0 28,0 v-14" fill="none" stroke="#38BDF8" stroke-width="2"/><path d="M-14,-3 a14,5 0 0 0 28,0" fill="none" stroke="#2563EB" stroke-width="2"/>
      </g>
    </g>
    <text x="88.0" y="112" text-anchor="middle" font-family="'Segoe UI', ui-sans-serif, system-ui, -apple-system, 'Helvetica Neue', Arial, sans-serif" font-size="14.5"
      font-weight="600" fill="#FFFFFF">SQL</text>
  </g>
  <g transform="translate(10,156)">
    <rect width="176" height="132" rx="18" fill="#16253F" stroke="#2C4265" stroke-width="1.2"/>
    <rect width="176" height="132" rx="18" fill="none" stroke="#38BDF8" stroke-width="1.2" opacity="0">
      <animate attributeName="opacity" values="0;0.5;0" dur="3.2s" begin="0.12s" repeatCount="indefinite"/>
    </rect>
    <g transform="translate(88.0,46)">
      <circle r="26" fill="none" stroke="#38BDF8" stroke-width="1" opacity="0.25">
        <animate attributeName="r" values="24;28;24" dur="3.2s" begin="0.12s" repeatCount="indefinite"/>
        <animate attributeName="opacity" values="0.15;0.4;0.15" dur="3.2s" begin="0.12s" repeatCount="indefinite"/>
      </circle>
      <g>
        <animateTransform attributeName="transform" type="translate" values="0,0; 0,-3; 0,0"
          dur="3.2s" begin="0.12s" repeatCount="indefinite"/>
        <rect x="-14" y="-4" width="8" height="8" fill="#38BDF8"/><rect x="-4" y="-4" width="8" height="8" fill="#38BDF8"/><rect x="6" y="-4" width="8" height="8" fill="#38BDF8"/><rect x="-4" y="-13" width="8" height="8" fill="#2563EB"/><rect x="6" y="-13" width="8" height="8" fill="#2563EB"/><path d="M-20,4 C-20,14 -10,17 2,17 C14,17 20,10 20,4 Z" fill="#38BDF8"/>
      </g>
    </g>
    <text x="88.0" y="112" text-anchor="middle" font-family="'Segoe UI', ui-sans-serif, system-ui, -apple-system, 'Helvetica Neue', Arial, sans-serif" font-size="14.5"
      font-weight="600" fill="#FFFFFF">Docker</text>
  </g>
  <g transform="translate(200,156)">
    <rect width="176" height="132" rx="18" fill="#16253F" stroke="#2C4265" stroke-width="1.2"/>
    <rect width="176" height="132" rx="18" fill="none" stroke="#38BDF8" stroke-width="1.2" opacity="0">
      <animate attributeName="opacity" values="0;0.5;0" dur="3.5500000000000003s" begin="0.3s" repeatCount="indefinite"/>
    </rect>
    <g transform="translate(88.0,46)">
      <circle r="26" fill="none" stroke="#38BDF8" stroke-width="1" opacity="0.25">
        <animate attributeName="r" values="24;28;24" dur="3.5500000000000003s" begin="0.3s" repeatCount="indefinite"/>
        <animate attributeName="opacity" values="0.15;0.4;0.15" dur="3.5500000000000003s" begin="0.3s" repeatCount="indefinite"/>
      </circle>
      <g>
        <animateTransform attributeName="transform" type="translate" values="0,0; 0,-3; 0,0"
          dur="3.5500000000000003s" begin="0.3s" repeatCount="indefinite"/>
        <circle cx="0" cy="0" r="15" fill="#38BDF8" opacity="0.14"/><path d="M-6,-15 L-3,-10" fill="none" stroke="#38BDF8" stroke-width="2.4" stroke-linecap="round"/><path d="M6,-15 L3,-10" fill="none" stroke="#38BDF8" stroke-width="2.4" stroke-linecap="round"/><circle cx="0" cy="-2" r="10" fill="#38BDF8"/><ellipse cx="-3.6" cy="-2.5" rx="1.6" ry="2" fill="#0F172A"/><ellipse cx="3.6" cy="-2.5" rx="1.6" ry="2" fill="#0F172A"/><path d="M-7,10 C-7,4 -4,2 0,2 C4,2 7,4 7,10" fill="none" stroke="#38BDF8" stroke-width="2.6" stroke-linecap="round"/>
      </g>
    </g>
    <text x="88.0" y="112" text-anchor="middle" font-family="'Segoe UI', ui-sans-serif, system-ui, -apple-system, 'Helvetica Neue', Arial, sans-serif" font-size="14.5"
      font-weight="600" fill="#FFFFFF">GitHub</text>
  </g>
  <g transform="translate(390,156)">
    <rect width="176" height="132" rx="18" fill="#16253F" stroke="#2C4265" stroke-width="1.2"/>
    <rect width="176" height="132" rx="18" fill="none" stroke="#38BDF8" stroke-width="1.2" opacity="0">
      <animate attributeName="opacity" values="0;0.5;0" dur="3.9000000000000004s" begin="0.48s" repeatCount="indefinite"/>
    </rect>
    <g transform="translate(88.0,46)">
      <circle r="26" fill="none" stroke="#38BDF8" stroke-width="1" opacity="0.25">
        <animate attributeName="r" values="24;28;24" dur="3.9000000000000004s" begin="0.48s" repeatCount="indefinite"/>
        <animate attributeName="opacity" values="0.15;0.4;0.15" dur="3.9000000000000004s" begin="0.48s" repeatCount="indefinite"/>
      </circle>
      <g>
        <animateTransform attributeName="transform" type="translate" values="0,0; 0,-3; 0,0"
          dur="3.9000000000000004s" begin="0.48s" repeatCount="indefinite"/>
        <path d="M-15,3 Q0,11 15,3" fill="none" stroke="#38BDF8" stroke-width="2.6" stroke-linecap="round"/><path d="M9,-1 L15,3 L9,8" fill="none" stroke="#38BDF8" stroke-width="2.6" stroke-linecap="round" stroke-linejoin="round"/><text x="0" y="-6" text-anchor="middle" font-family="'Segoe UI', ui-sans-serif, system-ui, -apple-system, 'Helvetica Neue', Arial, sans-serif" font-size="13" font-weight="700" fill="#2563EB">AWS</text>
      </g>
    </g>
    <text x="88.0" y="112" text-anchor="middle" font-family="'Segoe UI', ui-sans-serif, system-ui, -apple-system, 'Helvetica Neue', Arial, sans-serif" font-size="14.5"
      font-weight="600" fill="#FFFFFF">AWS</text>
  </g>
  <g transform="translate(580,156)">
    <rect width="176" height="132" rx="18" fill="#16253F" stroke="#2C4265" stroke-width="1.2"/>
    <rect width="176" height="132" rx="18" fill="none" stroke="#38BDF8" stroke-width="1.2" opacity="0">
      <animate attributeName="opacity" values="0;0.5;0" dur="4.25s" begin="0.66s" repeatCount="indefinite"/>
    </rect>
    <g transform="translate(88.0,46)">
      <circle r="26" fill="none" stroke="#38BDF8" stroke-width="1" opacity="0.25">
        <animate attributeName="r" values="24;28;24" dur="4.25s" begin="0.66s" repeatCount="indefinite"/>
        <animate attributeName="opacity" values="0.15;0.4;0.15" dur="4.25s" begin="0.66s" repeatCount="indefinite"/>
      </circle>
      <g>
        <animateTransform attributeName="transform" type="translate" values="0,0; 0,-3; 0,0"
          dur="4.25s" begin="0.66s" repeatCount="indefinite"/>
        <path d="M-13,-15 L13,-15 L0,-7 Z" fill="#38BDF8" opacity="0.55"/><path d="M-13,-5 L13,-5 L0,3 Z" fill="#2563EB" opacity="0.7000000000000001"/><path d="M-13,5 L13,5 L0,13 Z" fill="#38BDF8" opacity="0.8500000000000001"/>
      </g>
    </g>
    <text x="88.0" y="112" text-anchor="middle" font-family="'Segoe UI', ui-sans-serif, system-ui, -apple-system, 'Helvetica Neue', Arial, sans-serif" font-size="14.5"
      font-weight="600" fill="#FFFFFF">Databricks</text>
  </g>
  <g transform="translate(770,156)">
    <rect width="176" height="132" rx="18" fill="#16253F" stroke="#2C4265" stroke-width="1.2"/>
    <rect width="176" height="132" rx="18" fill="none" stroke="#38BDF8" stroke-width="1.2" opacity="0">
      <animate attributeName="opacity" values="0;0.5;0" dur="4.6s" begin="0.84s" repeatCount="indefinite"/>
    </rect>
    <g transform="translate(88.0,46)">
      <circle r="26" fill="none" stroke="#38BDF8" stroke-width="1" opacity="0.25">
        <animate attributeName="r" values="24;28;24" dur="4.6s" begin="0.84s" repeatCount="indefinite"/>
        <animate attributeName="opacity" values="0.15;0.4;0.15" dur="4.6s" begin="0.84s" repeatCount="indefinite"/>
      </circle>
      <g>
        <animateTransform attributeName="transform" type="translate" values="0,0; 0,-3; 0,0"
          dur="4.6s" begin="0.84s" repeatCount="indefinite"/>
        <g transform="rotate(0)"><ellipse cx="0" cy="-9" rx="4" ry="7.5" fill="none" stroke="#38BDF8" stroke-width="2"/></g><g transform="rotate(60)"><ellipse cx="0" cy="-9" rx="4" ry="7.5" fill="none" stroke="#38BDF8" stroke-width="2"/></g><g transform="rotate(120)"><ellipse cx="0" cy="-9" rx="4" ry="7.5" fill="none" stroke="#38BDF8" stroke-width="2"/></g><g transform="rotate(180)"><ellipse cx="0" cy="-9" rx="4" ry="7.5" fill="none" stroke="#38BDF8" stroke-width="2"/></g><g transform="rotate(240)"><ellipse cx="0" cy="-9" rx="4" ry="7.5" fill="none" stroke="#38BDF8" stroke-width="2"/></g><g transform="rotate(300)"><ellipse cx="0" cy="-9" rx="4" ry="7.5" fill="none" stroke="#38BDF8" stroke-width="2"/></g>
      </g>
    </g>
    <text x="88.0" y="112" text-anchor="middle" font-family="'Segoe UI', ui-sans-serif, system-ui, -apple-system, 'Helvetica Neue', Arial, sans-serif" font-size="14.5"
      font-weight="600" fill="#FFFFFF">OpenAI</text>
  </g>
  <g transform="translate(10,302)">
    <rect width="176" height="132" rx="18" fill="#16253F" stroke="#2C4265" stroke-width="1.2"/>
    <rect width="176" height="132" rx="18" fill="none" stroke="#38BDF8" stroke-width="1.2" opacity="0">
      <animate attributeName="opacity" values="0;0.5;0" dur="3.2s" begin="0.24s" repeatCount="indefinite"/>
    </rect>
    <g transform="translate(88.0,46)">
      <circle r="26" fill="none" stroke="#38BDF8" stroke-width="1" opacity="0.25">
        <animate attributeName="r" values="24;28;24" dur="3.2s" begin="0.24s" repeatCount="indefinite"/>
        <animate attributeName="opacity" values="0.15;0.4;0.15" dur="3.2s" begin="0.24s" repeatCount="indefinite"/>
      </circle>
      <g>
        <animateTransform attributeName="transform" type="translate" values="0,0; 0,-3; 0,0"
          dur="3.2s" begin="0.24s" repeatCount="indefinite"/>
        <path d="M-9,-17 L-1.5,-12.5 L-1.5,-3.5 L-9,1 L-16.5,-3.5 L-16.5,-12.5 Z" fill="#38BDF8"/><path d="M9,-17 L16.5,-12.5 L16.5,-3.5 L9,1 L1.5,-3.5 L1.5,-12.5 Z" fill="#2563EB"/><path d="M9,1 L16.5,5.5 L16.5,14.5 L9,19 L1.5,14.5 L1.5,5.5 Z" fill="#38BDF8"/>
      </g>
    </g>
    <text x="88.0" y="112" text-anchor="middle" font-family="'Segoe UI', ui-sans-serif, system-ui, -apple-system, 'Helvetica Neue', Arial, sans-serif" font-size="14.5"
      font-weight="600" fill="#FFFFFF">Terraform</text>
  </g>
  <g transform="translate(200,302)">
    <rect width="176" height="132" rx="18" fill="#16253F" stroke="#2C4265" stroke-width="1.2"/>
    <rect width="176" height="132" rx="18" fill="none" stroke="#38BDF8" stroke-width="1.2" opacity="0">
      <animate attributeName="opacity" values="0;0.5;0" dur="3.5500000000000003s" begin="0.42s" repeatCount="indefinite"/>
    </rect>
    <g transform="translate(88.0,46)">
      <circle r="26" fill="none" stroke="#38BDF8" stroke-width="1" opacity="0.25">
        <animate attributeName="r" values="24;28;24" dur="3.5500000000000003s" begin="0.42s" repeatCount="indefinite"/>
        <animate attributeName="opacity" values="0.15;0.4;0.15" dur="3.5500000000000003s" begin="0.42s" repeatCount="indefinite"/>
      </circle>
      <g>
        <animateTransform attributeName="transform" type="translate" values="0,0; 0,-3; 0,0"
          dur="3.5500000000000003s" begin="0.42s" repeatCount="indefinite"/>
        <g transform="rotate(0)"><path d="M0,0 C4,-6 12,-6 16,0 C12,2 4,2 0,0 Z" fill="#38BDF8" opacity="0.85"/></g><g transform="rotate(120)"><path d="M0,0 C4,-6 12,-6 16,0 C12,2 4,2 0,0 Z" fill="#2563EB" opacity="0.85"/></g><g transform="rotate(240)"><path d="M0,0 C4,-6 12,-6 16,0 C12,2 4,2 0,0 Z" fill="#38BDF8" opacity="0.85"/></g><circle cx="0" cy="0" r="3" fill="#38BDF8"/>
      </g>
    </g>
    <text x="88.0" y="112" text-anchor="middle" font-family="'Segoe UI', ui-sans-serif, system-ui, -apple-system, 'Helvetica Neue', Arial, sans-serif" font-size="14.5"
      font-weight="600" fill="#FFFFFF">Airflow</text>
  </g>
  <g transform="translate(390,302)">
    <rect width="176" height="132" rx="18" fill="#16253F" stroke="#2C4265" stroke-width="1.2"/>
    <rect width="176" height="132" rx="18" fill="none" stroke="#38BDF8" stroke-width="1.2" opacity="0">
      <animate attributeName="opacity" values="0;0.5;0" dur="3.9000000000000004s" begin="0.6s" repeatCount="indefinite"/>
    </rect>
    <g transform="translate(88.0,46)">
      <circle r="26" fill="none" stroke="#38BDF8" stroke-width="1" opacity="0.25">
        <animate attributeName="r" values="24;28;24" dur="3.9000000000000004s" begin="0.6s" repeatCount="indefinite"/>
        <animate attributeName="opacity" values="0.15;0.4;0.15" dur="3.9000000000000004s" begin="0.6s" repeatCount="indefinite"/>
      </circle>
      <g>
        <animateTransform attributeName="transform" type="translate" values="0,0; 0,-3; 0,0"
          dur="3.9000000000000004s" begin="0.6s" repeatCount="indefinite"/>
        <line x1="0" y1="0" x2="-14" y2="0" stroke="#38BDF8" stroke-width="1.8"/><circle cx="-14" cy="0" r="4" fill="#2563EB" stroke="#38BDF8" stroke-width="1.4"/><line x1="0" y1="0" x2="0" y2="-12" stroke="#38BDF8" stroke-width="1.8"/><circle cx="0" cy="-12" r="4" fill="#2563EB" stroke="#38BDF8" stroke-width="1.4"/><line x1="0" y1="0" x2="0" y2="12" stroke="#38BDF8" stroke-width="1.8"/><circle cx="0" cy="12" r="4" fill="#2563EB" stroke="#38BDF8" stroke-width="1.4"/><circle cx="0" cy="0" r="4" fill="#38BDF8"/>
      </g>
    </g>
    <text x="88.0" y="112" text-anchor="middle" font-family="'Segoe UI', ui-sans-serif, system-ui, -apple-system, 'Helvetica Neue', Arial, sans-serif" font-size="14.5"
      font-weight="600" fill="#FFFFFF">Kafka</text>
  </g>
  <g transform="translate(580,302)">
    <rect width="176" height="132" rx="18" fill="#16253F" stroke="#2C4265" stroke-width="1.2"/>
    <rect width="176" height="132" rx="18" fill="none" stroke="#38BDF8" stroke-width="1.2" opacity="0">
      <animate attributeName="opacity" values="0;0.5;0" dur="4.25s" begin="0.78s" repeatCount="indefinite"/>
    </rect>
    <g transform="translate(88.0,46)">
      <circle r="26" fill="none" stroke="#38BDF8" stroke-width="1" opacity="0.25">
        <animate attributeName="r" values="24;28;24" dur="4.25s" begin="0.78s" repeatCount="indefinite"/>
        <animate attributeName="opacity" values="0.15;0.4;0.15" dur="4.25s" begin="0.78s" repeatCount="indefinite"/>
      </circle>
      <g>
        <animateTransform attributeName="transform" type="translate" values="0,0; 0,-3; 0,0"
          dur="4.25s" begin="0.78s" repeatCount="indefinite"/>
        <line x1="-11" y1="11" x2="11" y2="-11" stroke="#38BDF8" stroke-width="2"/><circle cx="-11" cy="11" r="3.6" fill="#2563EB" stroke="#38BDF8" stroke-width="1.6"/><circle cx="11" cy="-11" r="3.6" fill="#2563EB" stroke="#38BDF8" stroke-width="1.6"/><circle cx="1" cy="-1" r="3.6" fill="#2563EB" stroke="#38BDF8" stroke-width="1.6"/><path d="M-3,-3 C-8,-3 -8,4 -11,7" fill="none" stroke="#38BDF8" stroke-width="1.6"/>
      </g>
    </g>
    <text x="88.0" y="112" text-anchor="middle" font-family="'Segoe UI', ui-sans-serif, system-ui, -apple-system, 'Helvetica Neue', Arial, sans-serif" font-size="14.5"
      font-weight="600" fill="#FFFFFF">Git</text>
  </g>
  <g transform="translate(770,302)">
    <rect width="176" height="132" rx="18" fill="#16253F" stroke="#2C4265" stroke-width="1.2"/>
    <rect width="176" height="132" rx="18" fill="none" stroke="#38BDF8" stroke-width="1.2" opacity="0">
      <animate attributeName="opacity" values="0;0.5;0" dur="4.6s" begin="0.96s" repeatCount="indefinite"/>
    </rect>
    <g transform="translate(88.0,46)">
      <circle r="26" fill="none" stroke="#38BDF8" stroke-width="1" opacity="0.25">
        <animate attributeName="r" values="24;28;24" dur="4.6s" begin="0.96s" repeatCount="indefinite"/>
        <animate attributeName="opacity" values="0.15;0.4;0.15" dur="4.6s" begin="0.96s" repeatCount="indefinite"/>
      </circle>
      <g>
        <animateTransform attributeName="transform" type="translate" values="0,0; 0,-3; 0,0"
          dur="4.6s" begin="0.96s" repeatCount="indefinite"/>
        <ellipse cx="0" cy="-2" rx="10" ry="13" fill="#38BDF8"/><ellipse cx="-4.5" cy="-6" rx="2.6" ry="3.2" fill="#0F172A"/><ellipse cx="4.5" cy="-6" rx="2.6" ry="3.2" fill="#0F172A"/><circle cx="-4.5" cy="-6.4" r="1" fill="#38BDF8"/><circle cx="4.5" cy="-6.4" r="1" fill="#38BDF8"/><path d="M-8,4 Q0,12 8,4 Q9,14 0,17 Q-9,14 -8,4 Z" fill="#2563EB"/>
      </g>
    </g>
    <text x="88.0" y="112" text-anchor="middle" font-family="'Segoe UI', ui-sans-serif, system-ui, -apple-system, 'Helvetica Neue', Arial, sans-serif" font-size="14.5"
      font-weight="600" fill="#FFFFFF">Linux</text>
  </g>
</svg>