<svg width="1300" height="300" viewBox="0 0 1300 300" xmlns="http://www.w3.org/2000/svg" role="img" aria-label="Career timeline">
  <defs>
    <linearGradient id="timelineGrad" x1="0" y1="0" x2="1" y2="0">
      <stop offset="0%" stop-color="#2563EB"/>
      <stop offset="100%" stop-color="#0EA5E9"/>
    </linearGradient>
  </defs>
  <rect width="1300" height="300" rx="24" fill="#F6F9FD"/>
  <line x1="130" y1="150" x2="1170" y2="150" stroke="#E4EBF5" stroke-width="2"/>
  <line x1="130" y1="150" x2="1170" y2="150" stroke="url(#timelineGrad)" stroke-width="2" stroke-dasharray="10 8">
    <animate attributeName="stroke-dashoffset" values="0;-36" dur="2.4s" repeatCount="indefinite"/>
  </line>
  <circle cy="150" r="4.5" fill="#0EA5E9">
    <animateMotion dur="7s" repeatCount="indefinite" path="M130,0 L1170,0"/>
    <animate attributeName="opacity" values="0;1;1;0" keyTimes="0;0.05;0.92;1" dur="7s" repeatCount="indefinite"/>
  </circle>
  
  <g transform="translate(130.0,150)">
    <line x1="0" y1="0" x2="0" y2="-48" stroke="#E4EBF5" stroke-width="1.4"/>
    <circle r="22" fill="none" stroke="#0EA5E9" stroke-width="1.2" opacity="0.3">
      <animate attributeName="r" values="20;25;20" dur="3s" begin="0.0s" repeatCount="indefinite"/>
      <animate attributeName="opacity" values="0.15;0.45;0.15" dur="3s" begin="0.0s" repeatCount="indefinite"/>
    </circle>
    <circle r="17" fill="#F6F9FD" stroke="#D7E3F5" stroke-width="1.6"/>
    <g><path d="M-11,-8 C-11,-11 -5,-11 0,-9 C5,-11 11,-11 11,-8 L11,8 C11,5 5,5 0,7 C-5,5 -11,5 -11,8 Z" fill="none" stroke="#0EA5E9" stroke-width="1.8"/><line x1="0" y1="-9" x2="0" y2="7" stroke="#0EA5E9" stroke-width="1.8"/></g>
    <text x="0" y="-58" text-anchor="middle" font-family="'Segoe UI', ui-sans-serif, system-ui, -apple-system, 'Helvetica Neue', Arial, sans-serif" font-size="16" font-weight="700" fill="#111827">Learning</text>
    <text x="0" y="-40" text-anchor="middle" font-family="'Segoe UI', ui-sans-serif, system-ui, -apple-system, 'Helvetica Neue', Arial, sans-serif" font-size="11" fill="#64748B">Foundations in CS, Python &amp; SQL</text>
  </g>
  <g transform="translate(303.33333333333337,150)">
    <line x1="0" y1="0" x2="0" y2="48" stroke="#E4EBF5" stroke-width="1.4"/>
    <circle r="22" fill="none" stroke="#0EA5E9" stroke-width="1.2" opacity="0.3">
      <animate attributeName="r" values="20;25;20" dur="3s" begin="0.35s" repeatCount="indefinite"/>
      <animate attributeName="opacity" values="0.15;0.45;0.15" dur="3s" begin="0.35s" repeatCount="indefinite"/>
    </circle>
    <circle r="17" fill="#F6F9FD" stroke="#D7E3F5" stroke-width="1.6"/>
    <g><path d="M-5,-9 L-13,0 L-5,9" fill="none" stroke="#0EA5E9" stroke-width="2" stroke-linecap="round" stroke-linejoin="round"/><path d="M5,-9 L13,0 L5,9" fill="none" stroke="#0EA5E9" stroke-width="2" stroke-linecap="round" stroke-linejoin="round"/><line x1="1" y1="-11" x2="-1" y2="11" stroke="#2563EB" stroke-width="2" stroke-linecap="round"/></g>
    <text x="0" y="58" text-anchor="middle" font-family="'Segoe UI', ui-sans-serif, system-ui, -apple-system, 'Helvetica Neue', Arial, sans-serif" font-size="16" font-weight="700" fill="#111827">Development</text>
    <text x="0" y="78" text-anchor="middle" font-family="'Segoe UI', ui-sans-serif, system-ui, -apple-system, 'Helvetica Neue', Arial, sans-serif" font-size="11" fill="#64748B">Backend engineering &amp; systems design</text>
  </g>
  <g transform="translate(476.6666666666667,150)">
    <line x1="0" y1="0" x2="0" y2="-48" stroke="#E4EBF5" stroke-width="1.4"/>
    <circle r="22" fill="none" stroke="#0EA5E9" stroke-width="1.2" opacity="0.3">
      <animate attributeName="r" values="20;25;20" dur="3s" begin="0.7s" repeatCount="indefinite"/>
      <animate attributeName="opacity" values="0.15;0.45;0.15" dur="3s" begin="0.7s" repeatCount="indefinite"/>
    </circle>
    <circle r="17" fill="#F6F9FD" stroke="#D7E3F5" stroke-width="1.6"/>
    <g><rect x="-8" y="-8" width="16" height="16" rx="4" fill="none" stroke="#0EA5E9" stroke-width="1.8"/><circle cx="0" cy="0" r="3" fill="#2563EB"/><line x1="-8" y1="0" x2="-13" y2="0" stroke="#0EA5E9" stroke-width="1.6"/><line x1="8" y1="0" x2="13" y2="0" stroke="#0EA5E9" stroke-width="1.6"/><line x1="0" y1="-8" x2="0" y2="-13" stroke="#0EA5E9" stroke-width="1.6"/><line x1="0" y1="8" x2="0" y2="13" stroke="#0EA5E9" stroke-width="1.6"/></g>
    <text x="0" y="-58" text-anchor="middle" font-family="'Segoe UI', ui-sans-serif, system-ui, -apple-system, 'Helvetica Neue', Arial, sans-serif" font-size="16" font-weight="700" fill="#111827">AI</text>
    <text x="0" y="-40" text-anchor="middle" font-family="'Segoe UI', ui-sans-serif, system-ui, -apple-system, 'Helvetica Neue', Arial, sans-serif" font-size="11" fill="#64748B">ML / LLM systems &amp; applied AI</text>
  </g>
  <g transform="translate(650.0,150)">
    <line x1="0" y1="0" x2="0" y2="48" stroke="#E4EBF5" stroke-width="1.4"/>
    <circle r="22" fill="none" stroke="#0EA5E9" stroke-width="1.2" opacity="0.3">
      <animate attributeName="r" values="20;25;20" dur="3s" begin="1.0499999999999998s" repeatCount="indefinite"/>
      <animate attributeName="opacity" values="0.15;0.45;0.15" dur="3s" begin="1.0499999999999998s" repeatCount="indefinite"/>
    </circle>
    <circle r="17" fill="#F6F9FD" stroke="#D7E3F5" stroke-width="1.6"/>
    <g><g transform="rotate(0)"><line x1="0" y1="0" x2="0" y2="-13" stroke="#0EA5E9" stroke-width="2" stroke-linecap="round"/></g><g transform="rotate(60)"><line x1="0" y1="0" x2="0" y2="-13" stroke="#0EA5E9" stroke-width="2" stroke-linecap="round"/></g><g transform="rotate(120)"><line x1="0" y1="0" x2="0" y2="-13" stroke="#0EA5E9" stroke-width="2" stroke-linecap="round"/></g><g transform="rotate(180)"><line x1="0" y1="0" x2="0" y2="-13" stroke="#0EA5E9" stroke-width="2" stroke-linecap="round"/></g><g transform="rotate(240)"><line x1="0" y1="0" x2="0" y2="-13" stroke="#0EA5E9" stroke-width="2" stroke-linecap="round"/></g><g transform="rotate(300)"><line x1="0" y1="0" x2="0" y2="-13" stroke="#0EA5E9" stroke-width="2" stroke-linecap="round"/></g></g>
    <text x="0" y="58" text-anchor="middle" font-family="'Segoe UI', ui-sans-serif, system-ui, -apple-system, 'Helvetica Neue', Arial, sans-serif" font-size="16" font-weight="700" fill="#111827">Snowflake</text>
    <text x="0" y="78" text-anchor="middle" font-family="'Segoe UI', ui-sans-serif, system-ui, -apple-system, 'Helvetica Neue', Arial, sans-serif" font-size="11" fill="#64748B">Cloud data platform engineering</text>
  </g>
  <g transform="translate(823.3333333333334,150)">
    <line x1="0" y1="0" x2="0" y2="-48" stroke="#E4EBF5" stroke-width="1.4"/>
    <circle r="22" fill="none" stroke="#0EA5E9" stroke-width="1.2" opacity="0.3">
      <animate attributeName="r" values="20;25;20" dur="3s" begin="1.4s" repeatCount="indefinite"/>
      <animate attributeName="opacity" values="0.15;0.45;0.15" dur="3s" begin="1.4s" repeatCount="indefinite"/>
    </circle>
    <circle r="17" fill="#F6F9FD" stroke="#D7E3F5" stroke-width="1.6"/>
    <g><circle cx="-8" cy="8" r="3.2" fill="#2563EB" stroke="#0EA5E9" stroke-width="1.2"/><circle cx="8" cy="8" r="3.2" fill="#2563EB" stroke="#0EA5E9" stroke-width="1.2"/><circle cx="0" cy="-10" r="3.2" fill="#2563EB" stroke="#0EA5E9" stroke-width="1.2"/><path d="M-8,5 C-8,-3 -4,-6 0,-7" fill="none" stroke="#0EA5E9" stroke-width="1.5"/><path d="M8,5 C8,-3 4,-6 0,-7" fill="none" stroke="#0EA5E9" stroke-width="1.5"/></g>
    <text x="0" y="-58" text-anchor="middle" font-family="'Segoe UI', ui-sans-serif, system-ui, -apple-system, 'Helvetica Neue', Arial, sans-serif" font-size="16" font-weight="700" fill="#111827">Open Source</text>
    <text x="0" y="-40" text-anchor="middle" font-family="'Segoe UI', ui-sans-serif, system-ui, -apple-system, 'Helvetica Neue', Arial, sans-serif" font-size="11" fill="#64748B">Contributing to the data community</text>
  </g>
  <g transform="translate(996.6666666666667,150)">
    <line x1="0" y1="0" x2="0" y2="48" stroke="#E4EBF5" stroke-width="1.4"/>
    <circle r="22" fill="none" stroke="#0EA5E9" stroke-width="1.2" opacity="0.3">
      <animate attributeName="r" values="20;25;20" dur="3s" begin="1.75s" repeatCount="indefinite"/>
      <animate attributeName="opacity" values="0.15;0.45;0.15" dur="3s" begin="1.75s" repeatCount="indefinite"/>
    </circle>
    <circle r="17" fill="#F6F9FD" stroke="#D7E3F5" stroke-width="1.6"/>
    <g><ellipse cx="-6" cy="1" rx="7.5" ry="6" fill="#0EA5E9"/><ellipse cx="6.5" cy="1" rx="7.5" ry="6" fill="#2563EB"/><circle cx="-8.5" cy="-1.5" r="1.3" fill="#0F172A"/><circle cx="4" cy="-1.5" r="1.3" fill="#0F172A"/></g>
    <text x="0" y="58" text-anchor="middle" font-family="'Segoe UI', ui-sans-serif, system-ui, -apple-system, 'Helvetica Neue', Arial, sans-serif" font-size="16" font-weight="700" fill="#111827">Go</text>
    <text x="0" y="78" text-anchor="middle" font-family="'Segoe UI', ui-sans-serif, system-ui, -apple-system, 'Helvetica Neue', Arial, sans-serif" font-size="11" fill="#64748B">Systems programming in Go</text>
  </g>
  <g transform="translate(1170.0,150)">
    <line x1="0" y1="0" x2="0" y2="-48" stroke="#E4EBF5" stroke-width="1.4"/>
    <circle r="22" fill="none" stroke="#0EA5E9" stroke-width="1.2" opacity="0.3">
      <animate attributeName="r" values="20;25;20" dur="3s" begin="2.0999999999999996s" repeatCount="indefinite"/>
      <animate attributeName="opacity" values="0.15;0.45;0.15" dur="3s" begin="2.0999999999999996s" repeatCount="indefinite"/>
    </circle>
    <circle r="17" fill="#F6F9FD" stroke="#0EA5E9" stroke-width="1.6"/>
    <g><path d="M-13,-5 C-5,-5 -5,0 0,0 C-5,0 -5,5 -13,5 Z" fill="#0EA5E9"/><path d="M13,-5 C5,-5 5,0 0,0 C5,0 5,5 13,5 Z" fill="#2563EB"/></g>
    <text x="0" y="-58" text-anchor="middle" font-family="'Segoe UI', ui-sans-serif, system-ui, -apple-system, 'Helvetica Neue', Arial, sans-serif" font-size="16" font-weight="700" fill="#111827">dbt</text>
    <text x="0" y="-40" text-anchor="middle" font-family="'Segoe UI', ui-sans-serif, system-ui, -apple-system, 'Helvetica Neue', Arial, sans-serif" font-size="11" fill="#64748B">Analytics engineering &amp; governance</text>
  </g>
</svg>