<svg width="580" height="414" viewBox="0 0 580 414" xmlns="http://www.w3.org/2000/svg" role="img" aria-label="Achievements">
  <rect x="1" y="1" width="578" height="412" rx="22" fill="#FFFFFF" stroke="#DCE6F5" stroke-width="1.3"/>
  <text x="14" y="30" font-family="'Segoe UI', ui-sans-serif, system-ui, -apple-system, 'Helvetica Neue', Arial, sans-serif" font-size="18" font-weight="700" fill="#111827">Achievements</text>
  <g transform="translate(466,10)"><circle cx="0" cy="-4" r="3.4" fill="#22C55E"><animate attributeName="opacity" values="0.5;1;0.5" dur="1.8s" repeatCount="indefinite"/></circle><text x="10" y="0" font-family="'Segoe UI', ui-sans-serif, system-ui, -apple-system, 'Helvetica Neue', Arial, sans-serif" font-size="11" font-weight="700" letter-spacing="1.2" fill="#22C55E">LIVE</text></g>
  
    <g transform="translate(10,56)">
      <rect width="176" height="166" rx="18" fill="#F2F6FC" stroke="#DCE6F5" stroke-width="1.2"/>
      <g transform="translate(88.0,50)">
        <circle r="28" fill="none" stroke="#F0B429" stroke-width="2" stroke-dasharray="none" opacity="0.9">
          <animate attributeName="opacity" values="0.5;0.9;0.5" dur="2.6s" begin="0.0s" repeatCount="indefinite"/>
        </circle>
        <g opacity="1"><rect x="-7" y="-9" width="14" height="18" rx="2" fill="none" stroke="#F0B429" stroke-width="1.8"/><line x1="-4" y1="-4" x2="4" y2="-4" stroke="#F0B429" stroke-width="1.4"/><line x1="-4" y1="0" x2="4" y2="0" stroke="#F0B429" stroke-width="1.4"/></g>
      </g>
      <text x="88.0" y="144" text-anchor="middle" font-family="'Segoe UI', ui-sans-serif, system-ui, -apple-system, 'Helvetica Neue', Arial, sans-serif" font-size="13" font-weight="700" fill="#111827">Repo Builder</text>
      <text x="88.0" y="160" text-anchor="middle" font-family="'SFMono-Regular', 'Cascadia Code', Consolas, 'Courier New', monospace" font-size="10.5" fill="#F0B429">GOLD</text>
    </g>
    <g transform="translate(202,56)">
      <rect width="176" height="166" rx="18" fill="#F2F6FC" stroke="#DCE6F5" stroke-width="1.2"/>
      <g transform="translate(88.0,50)">
        <circle r="28" fill="none" stroke="#C08A4E" stroke-width="2" stroke-dasharray="none" opacity="0.9">
          <animate attributeName="opacity" values="0.5;0.9;0.5" dur="2.6s" begin="0.3s" repeatCount="indefinite"/>
        </circle>
        <g opacity="1"><polygon points="0.0,-9.0 2.4,-3.2 8.6,-2.8 3.8,1.2 5.3,7.3 0.0,4.0 -5.3,7.3 -3.8,1.2 -8.6,-2.8 -2.4,-3.2" fill="#C08A4E"/></g>
      </g>
      <text x="88.0" y="144" text-anchor="middle" font-family="'Segoe UI', ui-sans-serif, system-ui, -apple-system, 'Helvetica Neue', Arial, sans-serif" font-size="13" font-weight="700" fill="#111827">Star Collector</text>
      <text x="88.0" y="160" text-anchor="middle" font-family="'SFMono-Regular', 'Cascadia Code', Consolas, 'Courier New', monospace" font-size="10.5" fill="#C08A4E">BRONZE</text>
    </g>
    <g transform="translate(394,56)">
      <rect width="176" height="166" rx="18" fill="#F2F6FC" stroke="#DCE6F5" stroke-width="1.2"/>
      <g transform="translate(88.0,50)">
        <circle r="28" fill="none" stroke="#E4EBF5" stroke-width="2" stroke-dasharray="4 5" opacity="0.5">
          
        </circle>
        <g opacity="0.35"><circle cx="-5" cy="-6" r="4" fill="#8592A6"/><circle cx="5" cy="-6" r="4" fill="#8592A6" opacity="0.7"/><path d="M-11,10 C-11,2 -1,2 -1,10" fill="#8592A6"/><path d="M11,10 C11,3 3,3 3,9" fill="#8592A6" opacity="0.7"/></g>
      </g>
      <text x="88.0" y="144" text-anchor="middle" font-family="'Segoe UI', ui-sans-serif, system-ui, -apple-system, 'Helvetica Neue', Arial, sans-serif" font-size="13" font-weight="700" fill="#8592A6">Community</text>
      <text x="88.0" y="160" text-anchor="middle" font-family="'SFMono-Regular', 'Cascadia Code', Consolas, 'Courier New', monospace" font-size="10.5" fill="#8592A6">LOCKED</text>
    </g>
    <g transform="translate(10,238)">
      <rect width="176" height="166" rx="18" fill="#F2F6FC" stroke="#DCE6F5" stroke-width="1.2"/>
      <g transform="translate(88.0,50)">
        <circle r="28" fill="none" stroke="#C08A4E" stroke-width="2" stroke-dasharray="none" opacity="0.9">
          <animate attributeName="opacity" values="0.5;0.9;0.5" dur="2.6s" begin="0.8999999999999999s" repeatCount="indefinite"/>
        </circle>
        <g opacity="1"><circle cx="0" cy="0" r="5" fill="none" stroke="#C08A4E" stroke-width="2"/><line x1="-14" y1="0" x2="-5" y2="0" stroke="#C08A4E" stroke-width="2"/><line x1="5" y1="0" x2="14" y2="0" stroke="#C08A4E" stroke-width="2"/></g>
      </g>
      <text x="88.0" y="144" text-anchor="middle" font-family="'Segoe UI', ui-sans-serif, system-ui, -apple-system, 'Helvetica Neue', Arial, sans-serif" font-size="13" font-weight="700" fill="#111827">Contributor</text>
      <text x="88.0" y="160" text-anchor="middle" font-family="'SFMono-Regular', 'Cascadia Code', Consolas, 'Courier New', monospace" font-size="10.5" fill="#C08A4E">BRONZE</text>
    </g>
    <g transform="translate(202,238)">
      <rect width="176" height="166" rx="18" fill="#F2F6FC" stroke="#DCE6F5" stroke-width="1.2"/>
      <g transform="translate(88.0,50)">
        <circle r="28" fill="none" stroke="#C08A4E" stroke-width="2" stroke-dasharray="none" opacity="0.9">
          <animate attributeName="opacity" values="0.5;0.9;0.5" dur="2.6s" begin="1.2s" repeatCount="indefinite"/>
        </circle>
        <g opacity="1"><circle cx="-7" cy="9" r="3" fill="none" stroke="#C08A4E" stroke-width="1.8"/><circle cx="-7" cy="-9" r="3" fill="none" stroke="#C08A4E" stroke-width="1.8"/><circle cx="7" cy="9" r="3" fill="none" stroke="#C08A4E" stroke-width="1.8"/><path d="M-7,-6 V3 C-7,7 -1,7 4,7" fill="none" stroke="#C08A4E" stroke-width="1.8"/></g>
      </g>
      <text x="88.0" y="144" text-anchor="middle" font-family="'Segoe UI', ui-sans-serif, system-ui, -apple-system, 'Helvetica Neue', Arial, sans-serif" font-size="13" font-weight="700" fill="#111827">PR Champion</text>
      <text x="88.0" y="160" text-anchor="middle" font-family="'SFMono-Regular', 'Cascadia Code', Consolas, 'Courier New', monospace" font-size="10.5" fill="#C08A4E">BRONZE</text>
    </g>
    <g transform="translate(394,238)">
      <rect width="176" height="166" rx="18" fill="#F2F6FC" stroke="#DCE6F5" stroke-width="1.2"/>
      <g transform="translate(88.0,50)">
        <circle r="28" fill="none" stroke="#9AA5B1" stroke-width="2" stroke-dasharray="none" opacity="0.9">
          <animate attributeName="opacity" values="0.5;0.9;0.5" dur="2.6s" begin="1.5s" repeatCount="indefinite"/>
        </circle>
        <g opacity="1"><circle cx="0" cy="0" r="11" fill="none" stroke="#9AA5B1" stroke-width="1.8"/><line x1="0" y1="0" x2="0" y2="-6" stroke="#9AA5B1" stroke-width="1.8"/><line x1="0" y1="0" x2="5" y2="2" stroke="#9AA5B1" stroke-width="1.8"/></g>
      </g>
      <text x="88.0" y="144" text-anchor="middle" font-family="'Segoe UI', ui-sans-serif, system-ui, -apple-system, 'Helvetica Neue', Arial, sans-serif" font-size="13" font-weight="700" fill="#111827">Veteran</text>
      <text x="88.0" y="160" text-anchor="middle" font-family="'SFMono-Regular', 'Cascadia Code', Consolas, 'Courier New', monospace" font-size="10.5" fill="#9AA5B1">SILVER</text>
    </g>
</svg>